{"title":"Walk the Line (Extended Cut) (2005) BDRip 720p  &amp;ndash; MediaClu","uid":11198298,"size":7880169113,"categoryP":"video","categoryS":"hd___movies","magnet":"?xt=urn:btih:d36bbcb3656bfacd79e33fc8d348c1886c32271b&amp;dn=Walk+the+Line+%28Extended+Cut%29+%282005%29+BDRip+720p++%26ndash%3B+MediaClu&amp;tr=udp%3A%2F%2Ftracker.openbittorrent.com%3A80&amp;tr=udp%3A%2F%2Fopen.demonii.com%3A1337&amp;tr=udp%3A%2F%2Ftracker.coppersurfer.tk%3A6969&amp;tr=udp%3A%2F%2Fexodus.desync.com%3A6969","seeders":6,"leechers":0,"uploader":"neni69","files":1,"time":1413131383,"description":" &lt;a href=&quot; http://mediaclub.tv/&quot; rel=&quot;nofollow&quot; target=&quot;_NEW&quot;&gt; http://mediaclub.tv/&lt;/a&gt;   Welcome to MediaClub\n\n===================================================================\n                               (RUS, ENG)\n\nUnique ID                      : 238052455392934180743394404830139202669 (0xB3173C3738BF978DBBA4EA2237E13C6D)\nComplete name                  : E:MCPerestupit.certu.2005.x264.BDRip(720p)-MediaClubPerestupit.certu.2005.x264.BDRip(720p)-MediaClub.mkv\nFormat                         : Matroska\nFormat version                 : Version 4 / Version 2\nFile size                      : 7.34 GiB\nDuration                       : 2h 33mn\nOverall bit rate               : 6 861 Kbps\nMovie name                     : -= Release MediaClub =-\nEncoded date                   : UTC 2014-10-10 19:15:56\nWriting application            : mkvmerge v7.2.0 ('On Every Street') 32bit built on Sep 13 2014 15:42:11\nWriting library                : libebml v1.3.0 + libmatroska v1.4.1\n_STATISTICS_WRITING_APP        : mkvmerge v7.2.0 ('On Every Street') 32bit built on Sep 13 2014 15:42:11\n_STATISTICS_WRITING_DATE_UTC   : 2014-10-10 19:15:56\n_STATISTICS_TAGS               : BPS DURATION NUMBER_OF_FRAMES NUMBER_OF_BYTES\nDURATION                       : 02:33:08.320000000\nNUMBER_OF_FRAMES               : 861405\nNUMBER_OF_BYTES                : 1734008265\nAttachment                     : Yes / Yes\n\nVideo\nID                             : 1\nFormat                         : AVC\nFormat/Info                    : Advanced Video Codec\nFormat profile                 : &lt;a class=&quot;__cf_email__&quot; href=&quot;/cdn-cgi/l/email-protection&quot; data-cfemail=&quot;266e4f414e666a120817&quot;&gt;[email&amp;#160;protected]&lt;/a&gt;&lt;script cf-hash='f9e31' type=&quot;text/javascript&quot;&gt;\n/* &lt;![CDATA[ */!function(){try{var t=&quot;currentScript&quot;in document?document.currentScript:function(){for(var t=document.getElementsByTagName(&quot;script&quot;),e=t.length;e--;)if(t[e].getAttribute(&quot;cf-hash&quot;))return t[e]}();if(t&amp;&amp;t.previousSibling){var e,r,n,i,c=t.previousSibling,a=c.getAttribute(&quot;data-cfemail&quot;);if(a){for(e=&quot;&quot;,r=parseInt(a.substr(0,2),16),n=2;a.length-n;n+=2)i=parseInt(a.substr(n,2),16)^r,e+=String.fromCharCode(i);e=document.createTextNode(e),c.parentNode.replaceChild(e,c)}}}catch(u){}}();/* ]]&gt; */&lt;/script&gt;\nFormat settings, CABAC         : Yes\nFormat settings, ReFrames      : 9 frames\nCodec ID                       : V_MPEG4/ISO/AVC\nDuration                       : 2h 33mn\nBit rate                       : 4 522 Kbps\nWidth                          : 1 280 pixels\nHeight                         : 532 pixels\nDisplay aspect ratio           : 2.40:1\nFrame rate                     : 23.976 fps\nColor space                    : YUV\nChroma subsampling             : 4:2:0\nBit depth                      : 8 bits\nScan type                      : Progressive\nBits/(Pixel*Frame)             : 0.277\nStream size                    : 4.69 GiB (64%)\nTitle                          : Perestupit.certu.2005.x264.BDRip(720p)-neni\nWriting library                : x264 core 142 r2409+42 04be48a tMod [8-bit@4:2:0 X86_64]\nEncoding settings              : cabac=1 / ref=9 / deblock=1:-3:-3 / analyse=0x3:0x133 / me=umh / subme=11 / psy=1 / fade_compensate=0.00 / psy_rd=1.00:0.15 / mixed_ref=1 / me_range=48 / chroma_me=1 / trellis=2 / 8x8dct=1 / cqm=0 / deadzone=21,11 / fast_pskip=0 / chroma_qp_offset=-3 / threads=9 / lookahead_threads=1 / sliced_threads=0 / nr=0 / decimate=0 / interlaced=0 / bluray_compat=0 / constrained_intra=0 / fgo=0 / bframes=8 / b_pyramid=2 / b_adapt=2 / b_bias=0 / direct=3 / weightb=1 / open_gop=0 / weightp=2 / keyint=240 / keyint_min=23 / scenecut=40 / intra_refresh=0 / rc=2pass / mbtree=0 / bitrate=4522 / ratetol=1.0 / qcomp=0.60 / qpmin=0:0:0 / qpmax=69:69:69 / qpstep=4 / cplxblur=20.0 / qblur=0.5 / ip_ratio=1.40 / pb_ratio=1.30 / aq=2:1.00 / aq-sensitivity=10.00 / aq-factor=1.00:1.00:1.00 / aq2=0 / aq3=0\nLanguage                       : English\nDefault                        : Yes\nForced                         : No\nDURATION                       : 02:33:08.304000000\nNUMBER_OF_FRAMES               : 220299\nNUMBER_OF_BYTES                : 5187627569\n_STATISTICS_WRITING_APP        : mkvmerge v7.2.0 ('On Every Street') 32bit built on Sep 13 2014 15:42:11\n_STATISTICS_WRITING_DATE_UTC   : 2014-10-10 19:15:56\n_STATISTICS_TAGS               : BPS DURATION NUMBER_OF_FRAMES NUMBER_OF_BYTES\n\nAudio #1\nID                             : 2\nFormat                         : AC-3\nFormat/Info                    : Audio Coding 3\nMode extension                 : CM (complete main)\nFormat settings, Endianness    : Big\nCodec ID                       : A_AC3\nDuration                       : 2h 33mn\nBit rate mode                  : Constant\nBit rate                       : 384 Kbps\nChannel(s)                     : 6 channels\nChannel positions              : Front: L C R, Side: L R, LFE\nSampling rate                  : 48.0 KHz\nBit depth                      : 16 bits\nCompression mode               : Lossy\nStream size                    : 421 MiB (6%)\nTitle                          : Dub AC3 5.1 384 kbps 48kHz\nLanguage                       : Russian\nDefault                        : Yes\nForced                         : No\n\nAudio #2\nID                             : 3\nFormat                         : AC-3\nFormat/Info                    : Audio Coding 3\nMode extension                 : CM (complete main)\nFormat settings, Endianness    : Big\nCodec ID                       : A_AC3\nDuration                       : 2h 33mn\nBit rate mode                  : Constant\nBit rate                       : 448 Kbps\nChannel(s)                     : 6 channels\nChannel positions              : Front: L C R, Side: L R, LFE\nSampling rate                  : 48.0 KHz\nBit depth                      : 16 bits\nCompression mode               : Lossy\nStream size                    : 491 MiB (7%)\nTitle                          : MVO AC3 5.1 448 kbps 48kHz\nLanguage                       : Russian\nDefault                        : No\nForced                         : No\n\nAudio #3\nID                             : 4\nFormat                         : DTS\nFormat/Info                    : Digital Theater Systems\nCodec ID                       : A_DTS\nDuration                       : 2h 33mn\nBit rate mode                  : Constant\nBit rate                       : 1 510 Kbps\nChannel(s)                     : 6 channels\nChannel positions              : Front: L C R, Side: L R, LFE\nSampling rate                  : 48.0 KHz\nBit depth                      : 24 bits\nCompression mode               : Lossy\nStream size                    : 1.61 GiB (22%)\nTitle                          : Original DTS 5.1 1510 kbps 48kHz\nLanguage                       : English\nDefault                        : No\nForced                         : No\n\nText #1\nID                             : 5\nFormat                         : UTF-8\nCodec ID                       : S_TEXT/UTF8\nCodec ID/Info                  : UTF-8 Plain Text\nTitle                          : Rus (forced) for DUB\nLanguage                       : Russian\nDefault                        : No\nForced                         : Yes\n\nText #2\nID                             : 6\nFormat                         : UTF-8\nCodec ID                       : S_TEXT/UTF8\nCodec ID/Info                  : UTF-8 Plain Text\nTitle                          : Rus (forced) for MVO\nLanguage                       : Russian\nDefault                        : No\nForced                         : No\n\nText #3\nID                             : 7\nFormat                         : UTF-8\nCodec ID                       : S_TEXT/UTF8\nCodec ID/Info                  : UTF-8 Plain Text\nTitle                          : Rus (full)\nLanguage                       : Russian\nDefault                        : No\nForced                         : No\n\nText #4\nID                             : 8\nFormat                         : UTF-8\nCodec ID                       : S_TEXT/UTF8\nCodec ID/Info                  : UTF-8 Plain Text\nTitle                          : Eng\nLanguage                       : English\nDefault                        : No\nForced                         : No\n\nMenu\n00:00:00.000                   : en:Walk the Line\n00:02:28.940                   : en:J.R. and Jack\n00:06:42.151                   : en:The Wrong Son\n00:10:59.075                   : en:Leaving Home\n00:13:15.336                   : en:Germany\n00:18:38.617                   : en:The Salesman\n00:22:30.015                   : en:Can't You Hear the Difference?\n00:26:32.257                   : en:One Song\n00:33:43.229                   : en:A Thousand Copies\n00:36:47.121                   : en:Stuck on June\n00:40:00.940                   : en:Get Rhythm\n00:42:27.878                   : en:Backstage\n00:46:11.894                   : en:Alone with June\n00:50:32.738                   : en:New Rules\n00:53:35.879                   : en:All These Boys\n00:56:05.570                   : en:It Just Happened\n00:58:02.103                   : en:Elvis Takes 'Em\n01:02:28.244                   : en:Deeper and Deeper\n01:05:37.767                   : en:A World of Judgment\n01:09:29.540                   : en:The Wrong Song\n01:14:09.319                   : en:Going Home\n01:17:26.350                   : en:I Walk the Line\n01:19:08.952                   : en:Missing the Music\n01:23:07.649                   : en:Back on the Road\n01:27:34.958                   : en:It's Not Wrong\n01:33:23.639                   : en:Breakdown\n01:39:03.395                   : en:Busted\n01:43:57.272                   : en:The End of a Marriage\n01:46:55.909                   : en:Disconnected\n01:49:20.762                   : en:Where's My Friend John?\n01:52:11.891                   : en:The New House\n01:55:24.918                   : en:Thanksgiving\n02:02:20.333                   : en:The Way Back\n02:04:34.008                   : en:Second Chance\n02:08:59.857                   : en:Fan Letters\n02:12:34.905                   : en:A Concert for Convicts\n02:16:53.830                   : en:Not the Right Time\n02:20:17.992                   : en:The Right Time\n02:26:35.995                   : en:One Man's Family\n02:27:39.600                   : en:Epilogue\n02:33:08.053                   : en:","torrent":{"xt":"urn:btih:d36bbcb3656bfacd79e33fc8d348c1886c32271b","amp;dn":"Walk+the+Line+%28Extended+Cut%29+%282005%29+BDRip+720p++%26ndash%3B+MediaClu","amp;tr":["udp%3A%2F%2Ftracker.openbittorrent.com%3A80","udp%3A%2F%2Fopen.demonii.com%3A1337","udp%3A%2F%2Ftracker.coppersurfer.tk%3A6969","udp%3A%2F%2Fexodus.desync.com%3A6969"],"infoHash":"d36bbcb3656bfacd79e33fc8d348c1886c32271b","infoHashBuffer":{"type":"Buffer","data":[211,107,188,179,101,107,250,205,121,227,63,200,211,72,193,136,108,50,39,27]},"announce":[],"urlList":[]}}